<svg width="22" height="29" viewBox="0 0 22 29" fill="none" xmlns="http://www.w3.org/2000/svg">
<path d="M7.7875 15.3586L20.1478 2.99835V8.09113C20.1478 8.5293 20.5028 8.88385 20.9405 8.88385C21.3781 8.88385 21.7332 8.5293 21.7332 8.09113V1.08437C21.7332 0.981837 21.712 0.885156 21.6771 0.795354C21.6756 0.79157 21.6751 0.787442 21.6733 0.783142C21.593 0.588057 21.4371 0.432196 21.2421 0.351858C21.2378 0.350309 21.2336 0.349793 21.2298 0.348073C21.14 0.312634 21.0428 0.291992 20.9408 0.291992L13.9336 0.292164C13.496 0.292164 13.1409 0.646722 13.1409 1.08488C13.1409 1.52305 13.496 1.8776 13.9336 1.8776H19.0264L6.06588 14.8373L7.23382 20.6765L0.527407 27.3834C0.217752 27.693 0.217752 28.1947 0.527407 28.5043C0.682234 28.6592 0.885231 28.7364 1.08804 28.7364C1.29103 28.7364 1.49386 28.6592 1.64866 28.5043L8.95534 21.1976L7.7875 15.3586Z" fill="#01457A"/>
</svg>
