<svg width="45" height="46" viewBox="0 0 45 46" fill="none" xmlns="http://www.w3.org/2000/svg">
<path d="M38.0043 38.5043C46.6842 29.824 46.6842 15.7008 38.0043 7.02056C33.7997 2.81593 28.2089 0.5 22.2622 0.5C16.3155 0.5 10.7251 2.81589 6.52012 7.02012C2.31567 11.2248 0 16.8155 0 22.7622C0 28.7089 2.31589 34.2994 6.52012 38.5043C10.7248 42.709 16.3155 45.0244 22.2622 45.0244C28.2089 45.0244 33.7994 42.7086 38.0043 38.5043ZM7.64138 37.3834C3.73644 33.4779 1.58544 28.2856 1.58544 22.7625C1.58544 17.2395 3.73635 12.0472 7.64138 8.14169C11.5463 4.23622 16.7392 2.08575 22.2622 2.08575C27.7853 2.08575 32.9776 4.23666 36.8831 8.14169C44.9446 16.2037 44.9446 29.3219 36.8831 37.3834C32.9776 41.2888 27.7853 43.4393 22.2622 43.4393C16.7392 43.4393 11.5469 41.2889 7.64138 37.3834Z" fill="#01457A"/>
</svg>
